<svg xmlns="http://www.w3.org/2000/svg" width="33.875" height="32" viewBox="0 0 33.875 32">
  <path id="Trazado_32360" data-name="Trazado 32360" d="M30.813-16H22v-8.812a10.764,10.764,0,0,1,5.75,3.063A10.764,10.764,0,0,1,30.813-16ZM22-13H32.938A1.041,1.041,0,0,0,34-14a13.9,13.9,0,0,0-1.937-7.062,13.1,13.1,0,0,0-5-5A13.9,13.9,0,0,0,20-28a1.041,1.041,0,0,0-1,1.063V-13ZM13.875-7.875,21.75,0,13.875-7.875,21.75,0A11.288,11.288,0,0,1,17,1,11.962,11.962,0,0,1,8.5-2.5,11.962,11.962,0,0,1,5-11a11.893,11.893,0,0,1,2.25-7A12.147,12.147,0,0,1,13-22.312V-10A2.893,2.893,0,0,0,13.875-7.875Zm1.063-18a14.722,14.722,0,0,0-9.187,5A14.812,14.812,0,0,0,2-11,15.005,15.005,0,0,0,4.063-3.437,15.1,15.1,0,0,0,9.438,1.938,15.005,15.005,0,0,0,17,4a14.864,14.864,0,0,0,8.688-2.75.929.929,0,0,0,.125-1.437L16-10V-24.875A.988.988,0,0,0,14.938-25.875ZM34.875-10H20L29.938-.062a.906.906,0,0,0,1.313,0,14.637,14.637,0,0,0,4.625-8.875A.988.988,0,0,0,34.875-10Z" transform="translate(-2 28)" fill="#00558f"/>
</svg>
