<svg xmlns="http://www.w3.org/2000/svg" width="28" height="32" viewBox="0 0 28 32">
  <path id="Trazado_32359" data-name="Trazado 32359" d="M14-21a.963.963,0,0,1-1-1v-1a5.187,5.187,0,0,1,1.438-3.562A5.187,5.187,0,0,1,18-28h1a.963.963,0,0,1,1,1v1a5.187,5.187,0,0,1-1.437,3.563A5.187,5.187,0,0,1,15-21ZM0-10a13.879,13.879,0,0,1,1.688-6.812A6.156,6.156,0,0,1,7-20a10.19,10.19,0,0,1,2.688.375,25.247,25.247,0,0,1,2.5.813,4.95,4.95,0,0,0,3.625,0,25.247,25.247,0,0,1,2.5-.812A10.19,10.19,0,0,1,21-20a6.156,6.156,0,0,1,5.313,3.188A13.879,13.879,0,0,1,28-10,16.439,16.439,0,0,1,24.875,0Q21.937,3.875,18,4a6.135,6.135,0,0,1-1.687-.25q-.875-.25-1.5-.437a2.031,2.031,0,0,0-1.562,0q-.688.188-1.562.438A6.135,6.135,0,0,1,10,4Q6.125,3.875,3.125,0A16.439,16.439,0,0,1,0-10Z" transform="translate(0 28)" fill="#00558f"/>
</svg>
