<svg xmlns="http://www.w3.org/2000/svg" width="39.899" height="32" viewBox="0 0 39.899 32">
  <path id="Trazado_32357" data-name="Trazado 32357" d="M32.5-25H24.563a4.654,4.654,0,0,0-1.812-2.187A4.752,4.752,0,0,0,20-28a4.752,4.752,0,0,0-2.75.813A4.654,4.654,0,0,0,15.438-25H7.5A1.494,1.494,0,0,0,6-23.5,1.494,1.494,0,0,0,7.5-22h7.625A4.986,4.986,0,0,0,18.5-18.25V1H7.5a1.5,1.5,0,0,0,0,3h25a1.5,1.5,0,0,0,0-3h-11V-18.25A4.986,4.986,0,0,0,24.875-22H32.5A1.494,1.494,0,0,0,34-23.5,1.494,1.494,0,0,0,32.5-25ZM32-15.75,36.5-8,32-15.75,36.5-8h-9ZM24.125-6.937a5.944,5.944,0,0,0,2.688,3.5A9.947,9.947,0,0,0,32-2a9.947,9.947,0,0,0,5.188-1.437,5.944,5.944,0,0,0,2.688-3.5,2.657,2.657,0,0,0-.437-2L33.5-19.125A1.622,1.622,0,0,0,32-20a1.788,1.788,0,0,0-1.5.875L24.563-8.937A2.657,2.657,0,0,0,24.125-6.937ZM3.375-8l4.563-7.75L3.375-8l4.563-7.75L12.438-8ZM7.938-2a9.612,9.612,0,0,0,5.125-1.437,5.9,5.9,0,0,0,2.75-3.5,2.657,2.657,0,0,0-.437-2L9.438-19.125A1.622,1.622,0,0,0,7.938-20a1.788,1.788,0,0,0-1.5.875L.5-8.937a2.657,2.657,0,0,0-.437,2,5.711,5.711,0,0,0,2.688,3.5A9.947,9.947,0,0,0,7.938-2ZM20-25a1.947,1.947,0,0,1,1.438.563A1.947,1.947,0,0,1,22-23a1.947,1.947,0,0,1-.562,1.438A1.947,1.947,0,0,1,20-21a1.947,1.947,0,0,1-1.437-.562A1.947,1.947,0,0,1,18-23a1.947,1.947,0,0,1,.563-1.437A1.947,1.947,0,0,1,20-25Z" transform="translate(-0.019 28)" fill="#00558f"/>
</svg>
