<?xml version="1.0" encoding="UTF-8"?> <svg xmlns="http://www.w3.org/2000/svg" width="80" height="80" viewBox="0 0 80 80"><g transform="translate(-3778 15862)"><rect width="80" height="80" transform="translate(3778 -15862)" fill="#fff"></rect><g transform="translate(3781 -15849)"><g transform="translate(0 2.617)"><path d="M3620.293,649.766v23.317l-21.937,14.166V663.932Z" transform="translate(-3576.419 -635.6)" fill="none" stroke="#002e47" stroke-linecap="round" stroke-linejoin="round" stroke-width="1.5"></path><path d="M3600.079,663.932v23.317l-21.936-14.166V649.766Z" transform="translate(-3578.144 -635.6)" fill="none" stroke="#002e47" stroke-linecap="round" stroke-linejoin="round" stroke-width="1.5"></path><path d="M3600.079,636.714l-21.936,14.166,21.936,14.166,21.938-14.166Z" transform="translate(-3578.144 -636.714)" fill="none" stroke="#002e47" stroke-linecap="round" stroke-linejoin="round" stroke-width="1.5"></path></g><ellipse cx="18.191" cy="18.191" rx="18.191" ry="18.191" transform="translate(25.179 0.001)" fill="#fff" stroke="#00a1e4" stroke-linecap="round" stroke-linejoin="round" stroke-width="1.5"></ellipse><line x2="3.849" y2="3.849" transform="translate(55.252 31.962)" fill="none" stroke="#00a1e4" stroke-linecap="round" stroke-linejoin="round" stroke-width="1.5"></line><rect width="8.269" height="17.45" transform="translate(56.219 38.692) rotate(-45)" fill="#00a1e4"></rect><g transform="translate(28.378 17.343)"><line y1="3.533" x2="5.471" transform="translate(0 5.914)" fill="none" stroke="#002e47" stroke-linecap="round" stroke-linejoin="round" stroke-width="1.5"></line><line y2="6.512" transform="translate(15.496 0)" fill="none" stroke="#002e47" stroke-linecap="round" stroke-linejoin="round" stroke-width="1.5"></line><line y2="6.512" transform="translate(15.496 12.527)" fill="none" stroke="#002e47" stroke-linecap="round" stroke-linejoin="round" stroke-width="1.5"></line></g><g transform="translate(28.657 7.087)"><path d="M3613.528,654.1l5.47-3.533-5.4-3.639" transform="translate(-3603.781 -640.312)" fill="none" stroke="#002e47" stroke-linecap="round" stroke-linejoin="round" stroke-width="1.5"></path><line x1="5.4" y1="3.639" transform="translate(0)" fill="none" stroke="#002e47" stroke-linecap="round" stroke-linejoin="round" stroke-width="1.5"></line></g><ellipse cx="18.191" cy="18.191" rx="18.191" ry="18.191" transform="translate(25.179 0)" fill="none" stroke="#00a1e4" stroke-linecap="round" stroke-linejoin="round" stroke-width="1.5"></ellipse></g></g></svg> 