<svg xmlns="http://www.w3.org/2000/svg" width="28" height="32" viewBox="0 0 28 32">
  <path id="Trazado_32355" data-name="Trazado 32355" d="M8-28a1.494,1.494,0,0,1,1.5,1.5V-24h9v-2.5A1.494,1.494,0,0,1,20-28a1.494,1.494,0,0,1,1.5,1.5V-24H24a4.04,4.04,0,0,1,2.813,1.188A4.04,4.04,0,0,1,28-20V0a4.04,4.04,0,0,1-1.187,2.813A4.04,4.04,0,0,1,24,4H4A4.04,4.04,0,0,1,1.188,2.813,4.04,4.04,0,0,1,0,0V-20a4.04,4.04,0,0,1,1.188-2.812A4.04,4.04,0,0,1,4-24H6.5v-2.5A1.494,1.494,0,0,1,8-28ZM25-16H3V0A.963.963,0,0,0,4,1H24a.963.963,0,0,0,1-1ZM20.563-9.437l-7,7,7-7-7,7a1.509,1.509,0,0,1-2.125,0l-4-4a1.509,1.509,0,0,1,0-2.125,1.509,1.509,0,0,1,2.125,0L12.5-5.625l5.938-5.937a1.509,1.509,0,0,1,2.125,0A1.509,1.509,0,0,1,20.563-9.437Z" transform="translate(0 28)" fill="#00558f"/>
</svg>
